<svg width="56" height="56" viewBox="0 0 56 56" fill="none" xmlns="http://www.w3.org/2000/svg">
<path d="M38.2805 16.8751C38.7569 16.2068 38.7569 15.3099 38.2805 14.6416C37.5134 13.5656 35.9148 13.5656 35.1477 14.6416L26.8873 26.2284C26.4109 26.8966 26.4109 27.7936 26.8873 28.4618C27.6544 29.5378 29.253 29.5378 30.0201 28.4618L38.2805 16.8751ZM47.7547 14.6364C46.9829 13.5614 45.3828 13.5641 44.6146 14.6416L30.0565 35.0619C29.2617 36.1768 27.6134 36.2005 26.7868 35.1089L18.4033 24.0372C17.6105 22.9902 16.0297 23.0129 15.2674 24.0822C14.7758 24.7717 14.7865 25.7 15.2939 26.3779L26.7895 41.7377C27.6127 42.8378 29.2684 42.8186 30.066 41.6998L47.7585 16.883C48.238 16.2104 48.2365 15.3073 47.7547 14.6364ZM9.62398 29.4835C9.12275 30.1816 9.13738 31.1255 9.66 31.8077L17.3691 41.8714C18.1649 42.9103 19.7387 42.8833 20.4983 41.8177C20.9942 41.1222 20.9785 40.1845 20.4596 39.506L12.7585 29.4362C11.9627 28.3956 10.388 28.4194 9.62398 29.4835Z" fill="white" fill-opacity="0.38"/>
<mask id="mask0_104_143" style="mask-type:alpha" maskUnits="userSpaceOnUse" x="0" y="9" width="41" height="37">
<path d="M28.2028 44.7053L13.3236 26.512H10.483C11.4299 26.512 13.3236 26.0251 13.3236 24.0772C13.3236 22.1294 16.9758 21.1465 18.8018 20.8985L25.0917 29.0821L29.4878 31.3816L39.5651 17.1111L40.8502 13.3912V10.6859C40.1513 10.1449 37.9555 9.06274 34.7632 9.06274C31.5709 9.06274 21.0337 13.5265 16.1642 15.7584L5.54581 21.6425L0.946777 37.8067L14.8115 45.9903L28.2028 44.7053Z" fill="white" fill-opacity="0.38"/>
</mask>
<g mask="url(#mask0_104_143)">
<path d="M38.2805 16.8751C38.7569 16.2068 38.7569 15.3099 38.2805 14.6416C37.5134 13.5656 35.9148 13.5656 35.1477 14.6416L26.8873 26.2284C26.4109 26.8966 26.4109 27.7936 26.8873 28.4618C27.6544 29.5378 29.253 29.5378 30.0201 28.4618L38.2805 16.8751ZM47.7547 14.6364C46.9829 13.5614 45.3828 13.5641 44.6146 14.6416L30.0565 35.0619C29.2617 36.1768 27.6134 36.2005 26.7868 35.1089L18.4033 24.0372C17.6105 22.9902 16.0297 23.0129 15.2674 24.0822C14.7758 24.7717 14.7865 25.7 15.2939 26.3779L26.7895 41.7377C27.6127 42.8378 29.2684 42.8186 30.066 41.6998L47.7585 16.883C48.238 16.2104 48.2365 15.3073 47.7547 14.6364ZM9.62398 29.4835C9.12275 30.1816 9.13738 31.1255 9.66 31.8077L17.3691 41.8714C18.1649 42.9103 19.7387 42.8833 20.4983 41.8177C20.9942 41.1222 20.9785 40.1845 20.4596 39.506L12.7585 29.4362C11.9627 28.3956 10.388 28.4194 9.62398 29.4835Z" fill="white" fill-opacity="0.38"/>
</g>
<circle cx="28" cy="28" r="27.5" stroke="white" stroke-opacity="0.38"/>
</svg>
