<?xml version="1.0" encoding="UTF-8" standalone="no"?>
<svg
   width="414"
   height="414"
   viewBox="0 0 414 414"
   fill="none"
   version="1.1"
   id="svg49"
   sodipodi:docname="favicon.svg"
   inkscape:version="1.2 (dc2aedaf03, 2022-05-15)"
   xmlns:inkscape="http://www.inkscape.org/namespaces/inkscape"
   xmlns:sodipodi="http://sodipodi.sourceforge.net/DTD/sodipodi-0.dtd"
   xmlns="http://www.w3.org/2000/svg"
   xmlns:svg="http://www.w3.org/2000/svg">
  <sodipodi:namedview
     id="namedview51"
     pagecolor="#505050"
     bordercolor="#eeeeee"
     borderopacity="1"
     inkscape:showpageshadow="0"
     inkscape:pageopacity="0"
     inkscape:pagecheckerboard="0"
     inkscape:deskcolor="#505050"
     showgrid="false"
     inkscape:zoom="0.97463768"
     inkscape:cx="1.0260223"
     inkscape:cy="122.60967"
     inkscape:window-width="1920"
     inkscape:window-height="1010"
     inkscape:window-x="-6"
     inkscape:window-y="-6"
     inkscape:window-maximized="1"
     inkscape:current-layer="svg49" />
  <circle
     cx="207"
     cy="207"
     r="207"
     fill="url(#paint0_linear_16_31)"
     id="circle31"
     style="fill:#d30909;fill-opacity:1" />
  <path
     d="M283.003 124.755C286.525 119.814 286.525 113.183 283.003 108.243C277.332 100.289 265.514 100.289 259.843 108.243L198.775 193.902C195.253 198.843 195.253 205.473 198.775 210.414C204.446 218.368 216.264 218.368 221.935 210.414L283.003 124.755ZM353.045 108.204C347.339 100.257 335.51 100.277 329.83 108.243L222.205 259.207C216.328 267.449 204.143 267.625 198.032 259.555L136.054 177.703C130.193 169.963 118.506 170.131 112.87 178.036C109.236 183.134 109.316 189.996 113.067 195.008L198.052 308.561C204.138 316.693 216.378 316.552 222.275 308.281L353.073 124.813C356.617 119.841 356.606 113.165 353.045 108.204ZM71.1497 217.967C67.4441 223.128 67.5523 230.106 71.4159 235.15L128.408 309.549C134.291 317.229 145.926 317.03 151.542 309.152C155.208 304.01 155.092 297.078 151.256 292.062L94.3225 217.617C88.4395 209.925 76.7977 210.1 71.1497 217.967Z"
     fill="white"
     id="path33" />
  <mask
     id="mask0_16_31"
     style="mask-type:alpha"
     maskUnits="userSpaceOnUse"
     x="7"
     y="67"
     width="295"
     height="273">
    <path
       d="M208.5 330.5L98.5 196H77.5C84.5 196 98.5 192.4 98.5 178C98.5 163.6 125.5 156.333 139 154.5L185.5 215L218 232L292.5 126.5L302 99V79C296.833 75 280.6 67 257 67C233.4 67 155.5 100 119.5 116.5L41 160L7 279.5L109.5 340L208.5 330.5Z"
       fill="#C4C4C4"
       id="path35" />
  </mask>
  <g
     mask="url(#mask0_16_31)"
     id="g40">
    <path
       d="M283.003 124.755C286.525 119.814 286.525 113.183 283.003 108.243C277.332 100.289 265.514 100.289 259.843 108.243L198.775 193.902C195.253 198.843 195.253 205.473 198.775 210.414C204.446 218.368 216.264 218.368 221.935 210.414L283.003 124.755ZM353.045 108.204C347.339 100.257 335.51 100.277 329.83 108.243L222.205 259.207C216.328 267.449 204.143 267.625 198.032 259.555L136.054 177.703C130.193 169.963 118.506 170.131 112.87 178.036C109.236 183.134 109.316 189.996 113.067 195.008L198.052 308.561C204.138 316.693 216.378 316.552 222.275 308.281L353.073 124.813C356.617 119.841 356.606 113.165 353.045 108.204ZM71.1497 217.967C67.4441 223.128 67.5523 230.106 71.4159 235.15L128.408 309.549C134.291 317.229 145.926 317.03 151.542 309.152C155.208 304.01 155.092 297.078 151.256 292.062L94.3225 217.617C88.4395 209.925 76.7977 210.1 71.1497 217.967Z"
       fill="white"
       id="path38" />
  </g>
  <defs
     id="defs47">
    <linearGradient
       id="paint0_linear_16_31"
       x1="-5.10089e-06"
       y1="40.5"
       x2="381"
       y2="312.5"
       gradientUnits="userSpaceOnUse">
      <stop
         stop-color="#FF0000"
         id="stop42" />
      <stop
         offset="1"
         stop-color="#333333"
         id="stop44" />
    </linearGradient>
  </defs>
</svg>
