<svg width="36" height="36" viewBox="0 0 36 36" fill="none" xmlns="http://www.w3.org/2000/svg">
<path d="M35.8268 14.5139C35.5648 14.0111 35.0575 13.7112 34.4973 13.7309L30.4362 13.8754L30.296 11.9726C30.2538 11.399 29.9014 10.9131 29.3764 10.7044C28.8652 10.5012 28.2932 10.607 27.8843 10.981L24.5542 14.0253L26.168 7.35597C26.3031 6.79818 26.1173 6.22443 25.6832 5.85866C25.2654 5.50653 24.6955 5.42209 24.1962 5.63781L21.6847 6.72343L19.3208 1.3706C19.0833 0.833133 18.5772 0.499359 17.9996 0.499359C17.4222 0.499359 16.916 0.833274 16.6788 1.37067L14.3149 6.72343L11.8033 5.63781C11.304 5.42195 10.7342 5.50674 10.3163 5.85866C9.88222 6.22436 9.69638 6.79804 9.83138 7.35597L11.4453 14.0255L8.11512 10.981C7.70618 10.6071 7.1344 10.5012 6.62295 10.7044C6.09792 10.9131 5.74552 11.399 5.70333 11.9726L5.56313 13.8754L1.50208 13.7309C0.94478 13.7113 0.434591 14.011 0.172536 14.5139C-0.0983082 15.0337 -0.0483862 15.6461 0.302685 16.1124L2.86178 19.5105L1.30914 20.9173C0.930225 21.2607 0.756131 21.7702 0.84367 22.2801C0.930014 22.7836 1.25823 23.1999 1.72131 23.3937L8.02421 26.0318L7.25822 27.4038C7.02943 27.8135 7.00615 28.315 7.19593 28.7453C7.38366 29.1707 7.74675 29.4747 8.19218 29.5793L17.1714 31.6875V31.7385V34.6726C17.1714 35.13 17.5422 35.5007 17.9995 35.5007C18.4568 35.5007 18.8275 35.13 18.8275 34.6726V31.7385V31.6871L27.8049 29.5793C28.2503 29.4747 28.6136 29.1707 28.8012 28.7453C28.9909 28.3151 28.9677 27.8136 28.7389 27.4038L27.9733 26.0323L34.2775 23.3937C34.7406 23.1999 35.0688 22.7835 35.1552 22.2801C35.2427 21.7701 35.0686 21.2607 34.6897 20.9174L33.1371 19.5105L35.6961 16.1126C36.0477 15.6461 36.0977 15.0335 35.8268 14.5139ZM31.7284 18.6283C31.2665 19.2415 31.3485 20.1242 31.9152 20.6377L33.3868 21.9712L26.5159 24.847C26.3508 24.907 26.2057 25.019 26.1059 25.1712C25.9367 25.4292 25.9248 25.7597 26.0752 26.0291L27.1882 28.0228L18.8279 29.9857V25.424L26.2762 21.0489C26.6706 20.8173 26.8025 20.3099 26.5709 19.9154C26.3393 19.5212 25.8321 19.3891 25.4374 19.6208L18.8279 23.5031V13.4226C18.8279 12.9652 18.4571 12.5945 17.9998 12.5945C17.5426 12.5945 17.1717 12.9653 17.1717 13.4226V23.5271L10.5215 19.6209C10.1272 19.3893 9.6196 19.5212 9.38806 19.9155C9.15638 20.3098 9.28829 20.8173 9.68267 21.049L17.1717 25.448V29.9862L8.80967 28.0228L9.92272 26.0292C10.1069 25.6993 10.0442 25.2863 9.77042 25.0258C9.69118 24.9504 9.59999 24.8932 9.50288 24.855L2.61288 21.9712L4.08459 20.6378C4.65117 20.1243 4.73315 19.2417 4.27134 18.6284L1.84014 15.4002L5.70663 15.5377C6.48942 15.566 7.14361 14.9647 7.20232 14.1698L7.32516 12.5025L12.3295 17.0776C12.6305 17.3529 13.087 17.3677 13.4054 17.113C13.6656 16.9048 13.7702 16.5674 13.6896 16.2578L11.5275 7.32278L13.8621 8.33191C14.5814 8.64297 15.4274 8.30441 15.7481 7.57773L17.9998 2.47901L20.2514 7.57766C20.5723 8.30441 21.4183 8.64276 22.1376 8.33191L24.472 7.32278L22.3119 16.2496C22.2356 16.532 22.312 16.845 22.5352 17.0612C22.8497 17.3658 23.347 17.373 23.67 17.0775L28.6745 12.5024L28.7973 14.1698C28.856 14.9646 29.5117 15.5648 30.2929 15.5376L34.1594 15.4001L31.7284 18.6283Z" fill="#D30909"/>
</svg>
