<svg width="17" height="14" viewBox="0 0 17 14" fill="none" xmlns="http://www.w3.org/2000/svg">
<path d="M2.75868 1V0.5C2.61186 0.5 2.47245 0.564534 2.37745 0.676482C2.28245 0.78843 2.24146 0.936476 2.26535 1.08134L2.75868 1ZM15.7435 1L16.2368 1.08134C16.2607 0.936476 16.2197 0.78843 16.1247 0.676482C16.0297 0.564534 15.8903 0.5 15.7435 0.5V1ZM14.5068 8.5V9C14.7516 9 14.9604 8.82283 15.0002 8.58134L14.5068 8.5ZM3.99533 8.5L3.50199 8.58134C3.54181 8.82283 3.75058 9 3.99533 9V8.5ZM3.83333 1.5C4.10948 1.5 4.33333 1.27614 4.33333 1C4.33333 0.723858 4.10948 0.5 3.83333 0.5V1.5ZM0.5 0.5C0.223858 0.5 0 0.723858 0 1C0 1.27614 0.223858 1.5 0.5 1.5V0.5ZM2.75868 1.5H15.7435V0.5H2.75868V1.5ZM15.2501 0.918655L14.0135 8.41865L15.0002 8.58134L16.2368 1.08134L15.2501 0.918655ZM14.5068 8H3.99533V9H14.5068V8ZM4.48867 8.41865L3.25202 0.918655L2.26535 1.08134L3.50199 8.58134L4.48867 8.41865ZM5.5 13.1667C6.23638 13.1667 6.83333 12.5697 6.83333 11.8333H5.83333C5.83333 12.0174 5.68409 12.1667 5.5 12.1667V13.1667ZM6.83333 11.8333C6.83333 11.097 6.23638 10.5 5.5 10.5V11.5C5.68409 11.5 5.83333 11.6492 5.83333 11.8333H6.83333ZM5.5 10.5C4.76362 10.5 4.16667 11.097 4.16667 11.8333H5.16667C5.16667 11.6492 5.3159 11.5 5.5 11.5V10.5ZM4.16667 11.8333C4.16667 12.5697 4.76362 13.1667 5.5 13.1667V12.1667C5.3159 12.1667 5.16667 12.0174 5.16667 11.8333H4.16667ZM13 13.1667C13.7364 13.1667 14.3333 12.5697 14.3333 11.8333H13.3333C13.3333 12.0174 13.1841 12.1667 13 12.1667V13.1667ZM14.3333 11.8333C14.3333 11.097 13.7364 10.5 13 10.5V11.5C13.1841 11.5 13.3333 11.6492 13.3333 11.8333H14.3333ZM13 10.5C12.2636 10.5 11.6667 11.097 11.6667 11.8333H12.6667C12.6667 11.6492 12.8159 11.5 13 11.5V10.5ZM11.6667 11.8333C11.6667 12.5697 12.2636 13.1667 13 13.1667V12.1667C12.8159 12.1667 12.6667 12.0174 12.6667 11.8333H11.6667ZM3.83333 0.5H0.5V1.5H3.83333V0.5Z" fill="#333333"/>
</svg>
