<svg width="26" height="21" viewBox="0 0 26 21" fill="none" xmlns="http://www.w3.org/2000/svg">
<path d="M4.61389 1V0.5C4.46707 0.5 4.32766 0.564534 4.23266 0.676482C4.13766 0.78843 4.09667 0.936476 4.12056 1.08134L4.61389 1ZM25.3896 1L25.8829 1.08134C25.9068 0.936476 25.8658 0.78843 25.7708 0.676482C25.6758 0.564534 25.5364 0.5 25.3896 0.5V1ZM23.4109 13V13.5C23.6557 13.5 23.8644 13.3228 23.9043 13.0813L23.4109 13ZM6.59253 13L6.09919 13.0813C6.13901 13.3228 6.34778 13.5 6.59253 13.5V13ZM6.33333 1.5C6.60948 1.5 6.83333 1.27614 6.83333 1C6.83333 0.723858 6.60948 0.5 6.33333 0.5V1.5ZM1 0.5C0.723858 0.5 0.5 0.723858 0.5 1C0.5 1.27614 0.723858 1.5 1 1.5V0.5ZM4.61389 1.5H25.3896V0.5H4.61389V1.5ZM24.8962 0.918655L22.9176 12.9187L23.9043 13.0813L25.8829 1.08134L24.8962 0.918655ZM23.4109 12.5H6.59253V13.5H23.4109V12.5ZM7.08587 12.9187L5.10723 0.918655L4.12056 1.08134L6.09919 13.0813L7.08587 12.9187ZM9 20.1667C10.0125 20.1667 10.8333 19.3459 10.8333 18.3333H9.83333C9.83333 18.7936 9.46024 19.1667 9 19.1667V20.1667ZM10.8333 18.3333C10.8333 17.3208 10.0125 16.5 9 16.5V17.5C9.46024 17.5 9.83333 17.8731 9.83333 18.3333H10.8333ZM9 16.5C7.98748 16.5 7.16667 17.3208 7.16667 18.3333H8.16667C8.16667 17.8731 8.53976 17.5 9 17.5V16.5ZM7.16667 18.3333C7.16667 19.3459 7.98748 20.1667 9 20.1667V19.1667C8.53976 19.1667 8.16667 18.7936 8.16667 18.3333H7.16667ZM21 20.1667C22.0125 20.1667 22.8333 19.3459 22.8333 18.3333H21.8333C21.8333 18.7936 21.4602 19.1667 21 19.1667V20.1667ZM22.8333 18.3333C22.8333 17.3208 22.0125 16.5 21 16.5V17.5C21.4602 17.5 21.8333 17.8731 21.8333 18.3333H22.8333ZM21 16.5C19.9875 16.5 19.1667 17.3208 19.1667 18.3333H20.1667C20.1667 17.8731 20.5398 17.5 21 17.5V16.5ZM19.1667 18.3333C19.1667 19.3459 19.9875 20.1667 21 20.1667V19.1667C20.5398 19.1667 20.1667 18.7936 20.1667 18.3333H19.1667ZM6.33333 0.5H1V1.5H6.33333V0.5Z" fill="#333333"/>
</svg>
