<svg width="18" height="17" viewBox="0 0 18 17" fill="none" xmlns="http://www.w3.org/2000/svg">
<path fill-rule="evenodd" clip-rule="evenodd" d="M1.10348 0.437218C1.29874 0.241956 1.61532 0.241956 1.81058 0.437218L8.9995 7.62614L16.1884 0.437218C16.3837 0.241956 16.7003 0.241956 16.8955 0.437218C17.0908 0.63248 17.0908 0.949063 16.8955 1.14432L9.70661 8.33324L16.8955 15.5222C17.0908 15.7174 17.0908 16.034 16.8955 16.2293C16.7003 16.4245 16.3837 16.4245 16.1884 16.2293L8.9995 9.04035L1.81059 16.2293C1.61532 16.4245 1.29874 16.4245 1.10348 16.2293C0.908217 16.034 0.908217 15.7174 1.10348 15.5222L8.2924 8.33324L1.10348 1.14432C0.908216 0.949063 0.908216 0.63248 1.10348 0.437218Z" fill="#333333"/>
</svg>
