<svg width="14" height="16" viewBox="0 0 14 16" fill="none" xmlns="http://www.w3.org/2000/svg">
<path d="M5.33342 8.2178H5.83342C5.83342 8.10005 5.79187 7.98608 5.71608 7.89597L5.33342 8.2178ZM0.906032 2.95349L1.28869 2.63167L0.906032 2.95349ZM13.1413 2.95349L12.7587 2.63167L13.1413 2.95349ZM8.66675 8.27393L8.28409 7.95211C8.20831 8.04222 8.16675 8.15619 8.16675 8.27393H8.66675ZM8.66675 12.1667L8.96675 12.5667C9.09266 12.4722 9.16675 12.324 9.16675 12.1667H8.66675ZM5.33342 14.6667H4.83342C4.83342 14.856 4.94042 15.0292 5.10981 15.1139C5.2792 15.1986 5.48191 15.1803 5.63342 15.0667L5.33342 14.6667ZM5.71608 7.89597L1.28869 2.63167L0.523372 3.27532L4.95076 8.53962L5.71608 7.89597ZM1.28869 2.63167C1.01516 2.30643 1.24637 1.80984 1.67135 1.80984V0.809845C0.396424 0.809845 -0.29724 2.29958 0.523372 3.27532L1.28869 2.63167ZM1.67135 1.80984H12.376V0.809845H1.67135V1.80984ZM12.376 1.80984C12.801 1.80984 13.0322 2.30643 12.7587 2.63167L13.524 3.27532C14.3446 2.29959 13.651 0.809845 12.376 0.809845V1.80984ZM12.7587 2.63167L8.28409 7.95211L9.04941 8.59576L13.524 3.27532L12.7587 2.63167ZM8.16675 8.27393V12.1667H9.16675V8.27393H8.16675ZM8.36675 11.7667L5.03342 14.2667L5.63342 15.0667L8.96675 12.5667L8.36675 11.7667ZM5.83342 14.6667V8.2178H4.83342V14.6667H5.83342Z" fill="#333333"/>
</svg>
