<svg width="36" height="32" viewBox="0 0 36 32" fill="none" xmlns="http://www.w3.org/2000/svg">
<path fill-rule="evenodd" clip-rule="evenodd" d="M10.5 1.5C5.63373 1.5 1.83337 5.24158 1.83337 9.99183C1.83337 12.9143 3.16871 15.6069 5.62364 18.551C8.084 21.5017 11.6138 24.6418 15.9157 28.4684L18.0013 30.3308L20.084 28.4851L20.0851 28.4841L20.123 28.4503C24.4074 24.6312 27.9233 21.4971 30.3763 18.5532C32.8314 15.6069 34.1667 12.9143 34.1667 9.99183C34.1667 5.24158 30.3664 1.5 25.5 1.5C22.7479 1.5 20.1013 2.75916 18.3776 4.74467L18 5.1796L17.6225 4.74467C15.8988 2.75916 13.2522 1.5 10.5 1.5ZM0.833374 9.99183C0.833374 4.67123 5.09969 0.5 10.5 0.5C13.3534 0.5 16.0949 1.71774 18 3.67818C19.9052 1.71774 22.6466 0.5 25.5 0.5C30.9004 0.5 35.1667 4.67123 35.1667 9.99183C35.1667 13.2491 33.6687 16.1642 31.1446 19.1934C28.6439 22.1945 25.082 25.3695 20.841 29.1499L20.7494 29.2315L20.7483 29.2325L17.9988 31.6692L15.2511 29.2156L15.2032 29.173C10.9428 25.3834 7.36502 22.2009 4.85561 19.1915C2.33137 16.1642 0.833374 13.2492 0.833374 9.99183Z" fill="#D30909"/>
</svg>
