<svg width="16" height="15" viewBox="0 0 16 15" fill="none" xmlns="http://www.w3.org/2000/svg">
<path fill-rule="evenodd" clip-rule="evenodd" d="M10.3986 0.893854C11.3749 -0.0824568 12.9578 -0.0824564 13.9341 0.893854L14.439 1.39876C15.4153 2.37507 15.4153 3.95798 14.439 4.93429L5.60568 13.7676C5.13684 14.2365 4.50096 14.4999 3.83791 14.4999L0.833008 14.4999L0.833008 11.495C0.833008 10.8319 1.0964 10.196 1.56524 9.72719L10.3986 0.893854ZM13.227 1.60096C12.6412 1.01517 11.6915 1.01517 11.1057 1.60096L10.3734 2.33319L12.9997 4.95942L13.7319 4.22719C14.3177 3.6414 14.3177 2.69165 13.7319 2.10587L13.227 1.60096ZM12.2926 5.66653L9.66634 3.0403L2.27235 10.4343C1.99104 10.7156 1.83301 11.0971 1.83301 11.495L1.83301 13.4999L3.83791 13.4999C4.23574 13.4999 4.61727 13.3418 4.89857 13.0605L12.2926 5.66653Z" fill="#333333"/>
</svg>
