<svg width="16" height="15" viewBox="0 0 16 15" fill="none" xmlns="http://www.w3.org/2000/svg">
<path fill-rule="evenodd" clip-rule="evenodd" d="M7.99967 0.166504C8.27582 0.166504 8.49967 0.390362 8.49967 0.666504V6.83317H14.6663C14.9425 6.83317 15.1663 7.05703 15.1663 7.33317C15.1663 7.60931 14.9425 7.83317 14.6663 7.83317H8.49967V13.9998C8.49967 14.276 8.27582 14.4998 7.99967 14.4998C7.72353 14.4998 7.49967 14.276 7.49967 13.9998V7.83317H1.33301C1.05687 7.83317 0.833008 7.60931 0.833008 7.33317C0.833008 7.05703 1.05687 6.83317 1.33301 6.83317H7.49967V0.666504C7.49967 0.390362 7.72353 0.166504 7.99967 0.166504Z" fill="#333333"/>
</svg>
