<svg width="16" height="16" viewBox="0 0 16 16" fill="none" xmlns="http://www.w3.org/2000/svg">
<path fill-rule="evenodd" clip-rule="evenodd" d="M5.89039 2.68743C5.43592 3.25557 5.16671 4.16466 5.16671 5.5C5.16671 7.46171 5.74766 8.39112 6.19665 8.92991C6.29997 9.05388 6.39799 9.15912 6.49382 9.262C6.50881 9.27809 6.52374 9.29412 6.53864 9.31016C6.63925 9.41852 6.7585 9.54803 6.84511 9.68274C6.93637 9.8247 7.02946 10.0297 6.99687 10.2811C6.96534 10.5243 6.82857 10.7119 6.68693 10.8536C6.21408 11.3264 5.63734 11.6675 5.07261 11.9498C4.78923 12.0915 4.50065 12.2223 4.22522 12.3471L4.21962 12.3496C3.94309 12.4748 3.68058 12.5937 3.43198 12.718C2.92625 12.9709 2.52659 13.2234 2.25253 13.5291C1.99346 13.818 1.83337 14.1689 1.83337 14.6667C1.83337 14.9428 1.60952 15.1667 1.33337 15.1667C1.05723 15.1667 0.833374 14.9428 0.833374 14.6667C0.833374 13.9144 1.08995 13.3278 1.50796 12.8615C1.91099 12.412 2.44884 12.0916 2.98477 11.8236C3.25069 11.6907 3.52815 11.565 3.79849 11.4425L3.81263 11.4361C4.09058 11.3102 4.3619 11.1871 4.62539 11.0554C5.14522 10.7955 5.60315 10.5168 5.96093 10.1652C5.92698 10.1231 5.87788 10.0682 5.80584 9.99061C5.79247 9.97621 5.77851 9.96123 5.76403 9.9457C5.66867 9.84339 5.55079 9.71692 5.42843 9.57009C4.83575 8.85888 4.16671 7.70496 4.16671 5.5C4.16671 4.05784 4.45291 2.88359 5.10948 2.06278C5.78311 1.22065 6.77842 0.833332 8.00004 0.833332C9.22166 0.833332 10.217 1.22065 10.8906 2.06278C11.5472 2.88359 11.8334 4.05784 11.8334 5.5C11.8334 7.70496 11.1643 8.85888 10.5717 9.57009C10.4493 9.71692 10.3314 9.84339 10.2361 9.94569C10.2216 9.96123 10.2076 9.97621 10.1942 9.99061C10.1222 10.0682 10.0731 10.1231 10.0392 10.1652C10.3969 10.5168 10.8549 10.7955 11.3747 11.0554C11.6382 11.1871 11.9095 11.3102 12.1875 11.4361L12.2016 11.4426C12.4719 11.565 12.7494 11.6907 13.0153 11.8236C13.5512 12.0916 14.0891 12.412 14.4921 12.8615C14.9101 13.3278 15.1667 13.9144 15.1667 14.6667C15.1667 14.9428 14.9428 15.1667 14.6667 15.1667C14.3906 15.1667 14.1667 14.9428 14.1667 14.6667C14.1667 14.1689 14.0066 13.818 13.7475 13.5291C13.4735 13.2234 13.0738 12.9709 12.5681 12.718C12.3195 12.5937 12.057 12.4748 11.7805 12.3496L11.7749 12.3471C11.4994 12.2223 11.2109 12.0915 10.9275 11.9498C10.3627 11.6675 9.786 11.3264 9.31315 10.8536C9.17151 10.7119 9.03474 10.5243 9.00321 10.2811C8.97062 10.0297 9.06371 9.8247 9.15497 9.68274C9.24158 9.54803 9.36083 9.41852 9.46144 9.31016C9.47633 9.29413 9.49127 9.27809 9.50626 9.262C9.60209 9.15912 9.70011 9.05389 9.80343 8.92991C10.2524 8.39112 10.8334 7.46171 10.8334 5.5C10.8334 4.16466 10.5642 3.25557 10.1097 2.68743C9.67228 2.1406 9.00092 1.83333 8.00004 1.83333C6.99916 1.83333 6.3278 2.1406 5.89039 2.68743Z" fill="#333333"/>
</svg>
