<svg width="36" height="36" viewBox="0 0 36 36" fill="none" xmlns="http://www.w3.org/2000/svg">
<path d="M18.7028 14.1905C19.5343 14.5417 21.2398 15.1335 23.2943 15.1335C24.6049 15.1335 26.0574 14.8925 27.5143 14.1942C31.3762 12.3433 34.0089 7.8969 35.3393 0.979068C35.3788 0.773053 35.3282 0.560076 35.2004 0.393928C35.0724 0.227779 34.8795 0.124279 34.6704 0.109936C26.8018 -0.434002 21.5032 1.03919 18.9201 4.48464C16.4599 7.76605 17.2884 11.7449 17.6717 13.0851C16.394 15.0472 15.5531 16.9157 15.0027 18.5647C14.4567 17.0464 13.5726 15.908 12.5841 15.0549C12.5875 14.08 12.3843 11.7389 10.5265 10.043C8.57227 8.25901 5.44737 7.77329 1.23875 8.60024C1.03301 8.64067 0.854418 8.76723 0.748246 8.94808C0.642074 9.12906 0.61859 9.34668 0.683489 9.54587C2.17046 14.1073 4.23195 16.767 6.81094 17.4514C7.2665 17.5723 7.7094 17.6236 8.13338 17.6236C9.79367 17.6236 11.159 16.8373 11.8476 16.3492C13.3483 17.7608 14.1105 19.6804 14.1105 22.0827C14.1105 22.1379 14.1177 22.1912 14.1293 22.2428C13.9311 23.6245 13.9083 24.791 13.9448 25.6597C13.2274 25.2407 12.4053 25.0126 11.5468 25.0126C9.8888 25.0126 8.35831 25.8806 7.49804 27.2676C7.26347 27.2294 7.0254 27.2101 6.7857 27.2101C4.36231 27.2101 2.39082 29.1816 2.39082 31.6049C2.39061 34.0283 4.3621 35.9998 6.78556 35.9998H28.0275C30.4509 35.9998 32.4224 34.0283 32.4224 31.6049C32.4224 29.1816 30.4509 27.2101 28.0275 27.2101C27.1426 27.2101 26.2839 27.4815 25.5637 27.9681C24.7856 25.4016 22.3935 23.5476 19.604 23.5476C18.0131 23.5476 16.5272 24.1453 15.3999 25.1796C15.3848 24.1198 15.4705 22.6684 15.8502 20.9714C16.2646 19.1198 17.0876 16.753 18.7028 14.1905ZM20.0922 5.3634C22.2711 2.4569 26.8582 1.16666 33.7344 1.5209C32.4592 7.4784 30.1602 11.2937 26.8949 12.8665C23.9277 14.2958 20.8771 13.4526 19.5428 12.9445C20.7076 11.322 22.1997 9.6441 24.1124 7.98648C24.4181 7.72161 24.4512 7.25903 24.1862 6.95324C23.9214 6.64801 23.4587 6.61433 23.153 6.87955C21.3935 8.40449 19.9713 9.94933 18.8192 11.4607C18.5766 9.88984 18.5475 7.42363 20.0922 5.3634ZM6.71918 14.0223C6.73768 14.0241 8.59062 14.2031 10.4415 15.2969C10.501 15.332 10.5565 15.3701 10.6145 15.4062C9.8528 15.8633 8.57775 16.4042 7.18648 16.0354C5.28713 15.5313 3.62361 13.4131 2.35025 9.89019C5.64284 9.36869 8.05498 9.77931 9.52789 11.1152C10.4742 11.9734 10.8618 13.0866 11.0174 13.9582C8.92559 12.7755 6.89398 12.5673 6.85193 12.5635C6.44904 12.526 6.0927 12.8239 6.05614 13.2267C6.01943 13.6295 6.31636 13.9857 6.71918 14.0223ZM15.5715 27.2446C16.4393 25.8588 17.9477 25.0127 19.604 25.0127C22.1105 25.0127 24.1976 26.9697 24.3555 29.4681C24.3749 29.775 24.5836 30.037 24.8784 30.1242C25.1732 30.2115 25.4911 30.1057 25.6743 29.859C26.2338 29.1065 27.0915 28.675 28.0275 28.675C29.6431 28.675 30.9575 29.9894 30.9575 31.6049C30.9575 33.2205 29.6431 34.5349 28.0275 34.5349H6.78556C5.16999 34.5349 3.85564 33.2205 3.85564 31.6049C3.85564 29.9894 5.16999 28.675 6.78556 28.675C7.08404 28.675 7.37794 28.7195 7.65905 28.8073C8.01188 28.9173 8.39129 28.7476 8.54415 28.4112C9.07824 27.2365 10.2567 26.4775 11.5467 26.4775C12.5612 26.4775 13.5044 26.9346 14.1343 27.7316C14.289 27.9273 14.5323 28.0324 14.7809 28.0063C14.9013 27.9945 15.0144 27.9528 15.1123 27.8882C15.3799 27.7821 15.5575 27.5286 15.5715 27.2446Z" fill="#555555"/>
</svg>
