<svg width="36" height="36" viewBox="0 0 36 36" fill="none" xmlns="http://www.w3.org/2000/svg">
<g clip-path="url(#clip0_201_1153)">
<path d="M17.9998 9.3913C13.2525 9.3913 9.39111 13.2527 9.39111 18C9.39111 22.7473 13.2525 26.6086 17.9998 26.6086C22.7471 26.6086 26.6084 22.7473 26.6084 18C26.6084 13.2527 22.7471 9.3913 17.9998 9.3913ZM17.9998 25.0434C14.1165 25.0434 10.9563 21.8833 10.9563 18C10.9563 14.1167 14.1165 10.9565 17.9998 10.9565C21.8831 10.9565 25.0432 14.1167 25.0432 18C25.0432 21.8833 21.8831 25.0434 17.9998 25.0434Z" fill="#555555"/>
<path d="M17.9999 0C17.5679 0 17.2173 0.350633 17.2173 0.782633V7.04347C17.2173 7.47547 17.5679 7.82611 17.9999 7.82611C18.4319 7.82611 18.7826 7.47547 18.7826 7.04347V0.782633C18.7826 0.350633 18.4319 0 17.9999 0Z" fill="#555555"/>
<path d="M17.9999 28.1739C17.5679 28.1739 17.2173 28.5245 17.2173 28.9565V35.2174C17.2173 35.6494 17.5679 36 17.9999 36C18.4319 36 18.7826 35.6494 18.7826 35.2174V28.9565C18.7826 28.5245 18.4319 28.1739 17.9999 28.1739Z" fill="#555555"/>
<path d="M35.2173 17.2174H28.9565C28.5245 17.2174 28.1738 17.568 28.1738 18C28.1738 18.432 28.5245 18.7826 28.9565 18.7826H35.2173C35.6493 18.7826 35.9999 18.432 35.9999 18C35.9999 17.568 35.6493 17.2174 35.2173 17.2174Z" fill="#555555"/>
<path d="M7.04347 17.2174H0.782633C0.350633 17.2174 0 17.568 0 18C0 18.432 0.350633 18.7826 0.782633 18.7826H7.04347C7.47547 18.7826 7.82611 18.432 7.82611 18C7.82611 17.568 7.47547 17.2174 7.04347 17.2174Z" fill="#555555"/>
<path d="M30.7269 29.6218L26.2989 25.1938C25.9937 24.8885 25.4975 24.8885 25.1923 25.1938C24.8871 25.499 24.8871 25.9952 25.1923 26.3004L29.6203 30.7284C29.7737 30.8802 29.974 30.9569 30.1744 30.9569C30.3748 30.9569 30.5751 30.8803 30.7269 30.7284C31.0322 30.4232 31.0322 29.927 30.7269 29.6218Z" fill="#555555"/>
<path d="M10.806 9.69972L6.37803 5.27173C6.07281 4.96651 5.57661 4.96651 5.27139 5.27173C4.96618 5.57695 4.96618 6.07314 5.27139 6.37836L9.69785 10.8063C9.85126 10.9581 10.0516 11.0349 10.2519 11.0349C10.4523 11.0349 10.6526 10.9582 10.806 10.8063C11.1112 10.5011 11.1112 10.0049 10.806 9.69972Z" fill="#555555"/>
<path d="M30.7284 5.27173C30.4232 4.96651 29.927 4.96651 29.6218 5.27173L25.1938 9.69972C24.8885 10.0049 24.8885 10.5011 25.1938 10.8063C25.3472 10.9581 25.5475 11.0349 25.7478 11.0349C25.9482 11.0349 26.1485 10.9582 26.3004 10.8063L30.7284 6.37836C31.0336 6.07307 31.0336 5.57695 30.7284 5.27173Z" fill="#555555"/>
<path d="M10.806 25.1938C10.5008 24.8885 10.0046 24.8885 9.69939 25.1938L5.27139 29.6218C4.96618 29.927 4.96618 30.4232 5.27139 30.7284C5.42481 30.8802 5.62511 30.9569 5.82548 30.9569C6.02585 30.9569 6.22615 30.8803 6.37803 30.7284L10.806 26.3004C11.1112 25.9952 11.1112 25.499 10.806 25.1938Z" fill="#555555"/>
</g>
<defs>
<clipPath id="clip0_201_1153">
<rect width="36" height="36" fill="white"/>
</clipPath>
</defs>
</svg>
