<svg width="36" height="36" viewBox="0 0 36 36" fill="none" xmlns="http://www.w3.org/2000/svg">
<g clip-path="url(#clip0_201_1208)">
<path d="M18.0005 0C17.5865 0 17.2505 0.336023 17.2505 0.750023V35.25C17.2505 35.664 17.5865 36.0001 18.0005 36.0001C18.4145 36.0001 18.7505 35.664 18.7505 35.25V0.750023C18.7505 0.336023 18.4145 0 18.0005 0Z" fill="#555555"/>
<path d="M33.3618 25.593L3.3619 9.09304C3.00042 8.89356 2.5429 9.02554 2.34342 9.38856C2.14394 9.75159 2.27592 10.2076 2.64042 10.407L32.6404 26.907C32.7544 26.97 32.8774 27 33.0004 27C33.2644 27 33.5209 26.859 33.6574 26.6115C33.8584 26.2485 33.7249 25.7925 33.3618 25.593Z" fill="#555555"/>
<path d="M33.6575 9.38847C33.458 9.02545 32.999 8.89347 32.639 9.09295L2.63899 25.593C2.27597 25.7924 2.14399 26.2485 2.34347 26.6114C2.47847 26.8604 2.73644 26.9999 3.00047 26.9999C3.12344 26.9999 3.24797 26.9699 3.36194 26.9069L33.362 10.4069C33.725 10.2075 33.857 9.7515 33.6575 9.38847Z" fill="#555555"/>
<path d="M24.5299 1.72047C24.2374 1.42797 23.7619 1.42797 23.4694 1.72047L18.0004 7.18945L12.5299 1.72047C12.2374 1.42797 11.7619 1.42797 11.4694 1.72047C11.1769 2.01297 11.1769 2.4885 11.4694 2.781L17.4694 8.78097C17.6164 8.92645 17.8083 9 18.0004 9C18.1924 9 18.3843 8.92652 18.5299 8.78097L24.5299 2.781C24.8224 2.4885 24.8224 2.01297 24.5299 1.72047Z" fill="#555555"/>
<path d="M24.5313 33.219L18.5313 27.219C18.2388 26.9265 17.7633 26.9265 17.4708 27.219L11.4708 33.219C11.1783 33.5115 11.1783 33.987 11.4708 34.2795C11.7633 34.572 12.2389 34.572 12.5314 34.2795L18.0003 28.8105L23.4693 34.2811C23.6163 34.4265 23.8083 34.5001 24.0003 34.5001C24.1923 34.5001 24.3843 34.4266 24.5313 34.2796C24.8238 33.987 24.8238 33.5115 24.5313 33.219Z" fill="#555555"/>
<path d="M34.7224 15.033L27.4594 12.7875L29.6074 5.34145C29.7214 4.94398 29.4919 4.52843 29.0944 4.41298C28.6939 4.30048 28.2814 4.5285 28.1659 4.92598L25.8139 13.08C25.7014 13.473 25.9234 13.8825 26.3134 14.004L34.2784 16.4669C34.3519 16.4894 34.4269 16.4999 34.5004 16.4999C34.8199 16.4999 35.1169 16.2929 35.2173 15.9704C35.3389 15.5745 35.1184 15.156 34.7224 15.033Z" fill="#555555"/>
<path d="M9.68439 21.9975L1.71938 19.5345C1.32486 19.4115 0.904885 19.635 0.781908 20.0295C0.660408 20.4255 0.880908 20.844 1.27691 20.967L8.53991 23.2125L6.39186 30.6585C6.27788 31.056 6.50739 31.4715 6.90486 31.587C6.97539 31.608 7.04436 31.617 7.11334 31.617C7.43882 31.617 7.74031 31.4025 7.83186 31.0755L10.1839 22.9215C10.2964 22.5285 10.0743 22.119 9.68439 21.9975Z" fill="#555555"/>
<path d="M10.1869 13.0801L7.83493 4.92608C7.71941 4.53008 7.31145 4.30205 6.90645 4.41308C6.50743 4.5286 6.27793 4.9426 6.39345 5.34155L8.54143 12.7891L1.27843 15.0346C0.882431 15.1561 0.660455 15.576 0.783431 15.972C0.883908 16.293 1.17943 16.5 1.50041 16.5C1.57388 16.5 1.64891 16.4895 1.72238 16.467L9.68738 14.0041C10.0789 13.884 10.3009 13.4731 10.1869 13.0801Z" fill="#555555"/>
<path d="M35.2175 20.0295C35.096 19.6335 34.6775 19.4116 34.28 19.5345L26.315 21.9975C25.9235 22.1175 25.7015 22.5285 25.8155 22.9215L28.1675 31.0755C28.262 31.4025 28.5621 31.617 28.8875 31.617C28.955 31.617 29.0256 31.6065 29.0945 31.5869C29.492 31.4714 29.7231 31.0574 29.6075 30.6585L27.4596 23.2124L34.7226 20.9669C35.1185 20.8455 35.3405 20.4255 35.2175 20.0295Z" fill="#555555"/>
</g>
<defs>
<clipPath id="clip0_201_1208">
<rect width="36" height="36" fill="white"/>
</clipPath>
</defs>
</svg>
